<mxfile host="app.diagrams.net" modified="2021-01-27T02:58:50.561Z" agent="5.0 (Windows NT 10.0; Win64; x64) AppleWebKit/537.36 (KHTML, like Gecko) Chrome/88.0.4324.104 Safari/537.36" etag="TdC3UW6eex9-Tdo9eZrc" version="14.2.7" type="github">
  <diagram id="1n7SPdHhEVBP9YcIqV2i" name="Page-1">
    <mxGraphModel dx="1038" dy="-589" grid="1" gridSize="10" guides="1" tooltips="1" connect="1" arrows="1" fold="1" page="1" pageScale="1" pageWidth="827" pageHeight="1169" math="0" shadow="0">
      <root>
        <mxCell id="0" />
        <mxCell id="1" parent="0" />
        <mxCell id="w3ct9miu4DhZpaCJDkBc-1" value="" style="rounded=0;whiteSpace=wrap;html=1;fillColor=#dae8fc;strokeColor=#6c8ebf;" vertex="1" parent="1">
          <mxGeometry x="39.5" y="2160" width="30" height="30" as="geometry" />
        </mxCell>
        <mxCell id="w3ct9miu4DhZpaCJDkBc-17" value="&lt;font style=&quot;font-size: 23px&quot; face=&quot;Times New Roman&quot;&gt;&lt;b&gt;His&lt;/b&gt;&lt;/font&gt;" style="text;html=1;strokeColor=none;fillColor=none;align=left;verticalAlign=middle;whiteSpace=wrap;rounded=0;rotation=90;" vertex="1" parent="1">
          <mxGeometry x="32" y="2201" width="45" height="30" as="geometry" />
        </mxCell>
        <mxCell id="w3ct9miu4DhZpaCJDkBc-50" value="&lt;font style=&quot;font-size: 23px&quot; face=&quot;Times New Roman&quot;&gt;&lt;b&gt;father&lt;/b&gt;&lt;/font&gt;" style="text;html=1;strokeColor=none;fillColor=none;align=left;verticalAlign=middle;whiteSpace=wrap;rounded=0;rotation=90;" vertex="1" parent="1">
          <mxGeometry x="77" y="2201" width="45" height="30" as="geometry" />
        </mxCell>
        <mxCell id="w3ct9miu4DhZpaCJDkBc-52" value="&lt;font style=&quot;font-size: 23px&quot; face=&quot;Times New Roman&quot;&gt;&lt;b&gt;retired&lt;/b&gt;&lt;/font&gt;" style="text;html=1;strokeColor=none;fillColor=none;align=left;verticalAlign=middle;whiteSpace=wrap;rounded=0;rotation=90;" vertex="1" parent="1">
          <mxGeometry x="122" y="2201" width="45" height="30" as="geometry" />
        </mxCell>
        <mxCell id="w3ct9miu4DhZpaCJDkBc-54" value="&lt;font style=&quot;font-size: 23px&quot; face=&quot;Times New Roman&quot;&gt;&lt;b&gt;as&lt;/b&gt;&lt;/font&gt;" style="text;html=1;strokeColor=none;fillColor=none;align=left;verticalAlign=middle;whiteSpace=wrap;rounded=0;rotation=90;" vertex="1" parent="1">
          <mxGeometry x="167" y="2201" width="45" height="30" as="geometry" />
        </mxCell>
        <mxCell id="w3ct9miu4DhZpaCJDkBc-56" value="&lt;font style=&quot;font-size: 23px&quot; face=&quot;Times New Roman&quot;&gt;&lt;b&gt;the&lt;/b&gt;&lt;/font&gt;" style="text;html=1;strokeColor=none;fillColor=none;align=left;verticalAlign=middle;whiteSpace=wrap;rounded=0;rotation=90;" vertex="1" parent="1">
          <mxGeometry x="212" y="2201" width="45" height="30" as="geometry" />
        </mxCell>
        <mxCell id="w3ct9miu4DhZpaCJDkBc-58" value="&lt;font style=&quot;font-size: 23px&quot; face=&quot;Times New Roman&quot;&gt;&lt;b&gt;manager&lt;/b&gt;&lt;/font&gt;" style="text;html=1;strokeColor=none;fillColor=none;align=left;verticalAlign=middle;whiteSpace=wrap;rounded=0;rotation=90;" vertex="1" parent="1">
          <mxGeometry x="257" y="2201" width="45" height="30" as="geometry" />
        </mxCell>
        <mxCell id="w3ct9miu4DhZpaCJDkBc-60" value="&lt;font style=&quot;font-size: 23px&quot; face=&quot;Times New Roman&quot;&gt;&lt;b&gt;of&lt;/b&gt;&lt;/font&gt;" style="text;html=1;strokeColor=none;fillColor=none;align=left;verticalAlign=middle;whiteSpace=wrap;rounded=0;rotation=90;" vertex="1" parent="1">
          <mxGeometry x="302" y="2201" width="45" height="30" as="geometry" />
        </mxCell>
        <mxCell id="w3ct9miu4DhZpaCJDkBc-62" value="&lt;font style=&quot;font-size: 23px&quot; face=&quot;Times New Roman&quot;&gt;&lt;b&gt;plumbing&lt;br&gt;&lt;/b&gt;&lt;/font&gt;" style="text;html=1;strokeColor=none;fillColor=none;align=left;verticalAlign=middle;whiteSpace=wrap;rounded=0;rotation=90;" vertex="1" parent="1">
          <mxGeometry x="347" y="2201" width="45" height="30" as="geometry" />
        </mxCell>
        <mxCell id="w3ct9miu4DhZpaCJDkBc-64" value="&lt;font style=&quot;font-size: 23px&quot; face=&quot;Times New Roman&quot;&gt;&lt;b&gt;and&lt;/b&gt;&lt;/font&gt;" style="text;html=1;strokeColor=none;fillColor=none;align=left;verticalAlign=middle;whiteSpace=wrap;rounded=0;rotation=90;" vertex="1" parent="1">
          <mxGeometry x="392" y="2201" width="45" height="30" as="geometry" />
        </mxCell>
        <mxCell id="w3ct9miu4DhZpaCJDkBc-66" value="&lt;font style=&quot;font-size: 23px&quot; face=&quot;Times New Roman&quot;&gt;&lt;b&gt;heating&lt;/b&gt;&lt;/font&gt;" style="text;html=1;strokeColor=none;fillColor=none;align=left;verticalAlign=middle;whiteSpace=wrap;rounded=0;rotation=90;" vertex="1" parent="1">
          <mxGeometry x="437" y="2201" width="45" height="30" as="geometry" />
        </mxCell>
        <mxCell id="w3ct9miu4DhZpaCJDkBc-68" value="&lt;font style=&quot;font-size: 23px&quot; face=&quot;Times New Roman&quot;&gt;&lt;b&gt;at&lt;/b&gt;&lt;/font&gt;" style="text;html=1;strokeColor=none;fillColor=none;align=left;verticalAlign=middle;whiteSpace=wrap;rounded=0;rotation=90;" vertex="1" parent="1">
          <mxGeometry x="482" y="2201" width="45" height="30" as="geometry" />
        </mxCell>
        <mxCell id="w3ct9miu4DhZpaCJDkBc-70" value="&lt;font face=&quot;Times New Roman&quot;&gt;&lt;span style=&quot;font-size: 23px&quot;&gt;&lt;b&gt;Manhattan&lt;/b&gt;&lt;/span&gt;&lt;/font&gt;" style="text;html=1;strokeColor=none;fillColor=none;align=left;verticalAlign=middle;whiteSpace=wrap;rounded=0;rotation=90;" vertex="1" parent="1">
          <mxGeometry x="527" y="2201" width="45" height="30" as="geometry" />
        </mxCell>
        <mxCell id="w3ct9miu4DhZpaCJDkBc-72" value="&lt;font face=&quot;Times New Roman&quot;&gt;&lt;span style=&quot;font-size: 23px&quot;&gt;&lt;b&gt;College&lt;/b&gt;&lt;/span&gt;&lt;/font&gt;" style="text;html=1;strokeColor=none;fillColor=none;align=left;verticalAlign=middle;whiteSpace=wrap;rounded=0;rotation=90;" vertex="1" parent="1">
          <mxGeometry x="572" y="2201" width="45" height="30" as="geometry" />
        </mxCell>
        <mxCell id="w3ct9miu4DhZpaCJDkBc-74" value="&lt;font style=&quot;font-size: 23px&quot; face=&quot;Times New Roman&quot;&gt;&lt;b&gt;in&lt;/b&gt;&lt;/font&gt;" style="text;html=1;strokeColor=none;fillColor=none;align=left;verticalAlign=middle;whiteSpace=wrap;rounded=0;rotation=90;" vertex="1" parent="1">
          <mxGeometry x="617" y="2201" width="45" height="30" as="geometry" />
        </mxCell>
        <mxCell id="w3ct9miu4DhZpaCJDkBc-76" value="&lt;font face=&quot;Times New Roman&quot;&gt;&lt;span style=&quot;font-size: 23px&quot;&gt;&lt;b&gt;Riverdale&lt;/b&gt;&lt;/span&gt;&lt;/font&gt;" style="text;html=1;strokeColor=none;fillColor=none;align=left;verticalAlign=middle;whiteSpace=wrap;rounded=0;rotation=90;" vertex="1" parent="1">
          <mxGeometry x="662" y="2201" width="45" height="30" as="geometry" />
        </mxCell>
        <mxCell id="w3ct9miu4DhZpaCJDkBc-78" value="&lt;font style=&quot;font-size: 23px&quot; face=&quot;Times New Roman&quot;&gt;&lt;b&gt;.&lt;/b&gt;&lt;/font&gt;" style="text;html=1;strokeColor=none;fillColor=none;align=left;verticalAlign=middle;whiteSpace=wrap;rounded=0;rotation=90;" vertex="1" parent="1">
          <mxGeometry x="707" y="2201" width="45" height="30" as="geometry" />
        </mxCell>
        <mxCell id="w3ct9miu4DhZpaCJDkBc-89" value="" style="endArrow=none;html=1;rounded=0;fillColor=#dae8fc;strokeColor=#6c8ebf;" edge="1" parent="1">
          <mxGeometry width="50" height="50" relative="1" as="geometry">
            <mxPoint x="55" y="2160" as="sourcePoint" />
            <mxPoint x="55" y="2150" as="targetPoint" />
            <Array as="points">
              <mxPoint x="55" y="2160" />
            </Array>
          </mxGeometry>
        </mxCell>
        <mxCell id="w3ct9miu4DhZpaCJDkBc-94" value="" style="rounded=0;whiteSpace=wrap;html=1;fillColor=#dae8fc;strokeColor=#6c8ebf;" vertex="1" parent="1">
          <mxGeometry x="84.5" y="2160" width="30" height="30" as="geometry" />
        </mxCell>
        <mxCell id="w3ct9miu4DhZpaCJDkBc-95" value="" style="endArrow=none;html=1;rounded=0;fillColor=#dae8fc;strokeColor=#6c8ebf;" edge="1" parent="1">
          <mxGeometry width="50" height="50" relative="1" as="geometry">
            <mxPoint x="100" y="2160" as="sourcePoint" />
            <mxPoint x="100" y="2150" as="targetPoint" />
            <Array as="points">
              <mxPoint x="100" y="2160" />
            </Array>
          </mxGeometry>
        </mxCell>
        <mxCell id="w3ct9miu4DhZpaCJDkBc-96" value="" style="rounded=0;whiteSpace=wrap;html=1;fillColor=#dae8fc;strokeColor=#6c8ebf;" vertex="1" parent="1">
          <mxGeometry x="130" y="2160" width="30" height="30" as="geometry" />
        </mxCell>
        <mxCell id="w3ct9miu4DhZpaCJDkBc-97" value="" style="endArrow=none;html=1;rounded=0;fillColor=#dae8fc;strokeColor=#6c8ebf;" edge="1" parent="1">
          <mxGeometry width="50" height="50" relative="1" as="geometry">
            <mxPoint x="145.5" y="2160" as="sourcePoint" />
            <mxPoint x="145.5" y="2150" as="targetPoint" />
            <Array as="points">
              <mxPoint x="145.5" y="2160" />
            </Array>
          </mxGeometry>
        </mxCell>
        <mxCell id="w3ct9miu4DhZpaCJDkBc-98" value="" style="rounded=0;whiteSpace=wrap;html=1;fillColor=#dae8fc;strokeColor=#6c8ebf;" vertex="1" parent="1">
          <mxGeometry x="175" y="2160" width="30" height="30" as="geometry" />
        </mxCell>
        <mxCell id="w3ct9miu4DhZpaCJDkBc-99" value="" style="endArrow=none;html=1;rounded=0;fillColor=#dae8fc;strokeColor=#6c8ebf;" edge="1" parent="1">
          <mxGeometry width="50" height="50" relative="1" as="geometry">
            <mxPoint x="190.5" y="2160" as="sourcePoint" />
            <mxPoint x="190.5" y="2150" as="targetPoint" />
            <Array as="points">
              <mxPoint x="190.5" y="2160" />
            </Array>
          </mxGeometry>
        </mxCell>
        <mxCell id="w3ct9miu4DhZpaCJDkBc-100" value="" style="rounded=0;whiteSpace=wrap;html=1;fillColor=#dae8fc;strokeColor=#6c8ebf;" vertex="1" parent="1">
          <mxGeometry x="220" y="2160" width="30" height="30" as="geometry" />
        </mxCell>
        <mxCell id="w3ct9miu4DhZpaCJDkBc-101" value="" style="endArrow=none;html=1;rounded=0;fillColor=#dae8fc;strokeColor=#6c8ebf;" edge="1" parent="1">
          <mxGeometry width="50" height="50" relative="1" as="geometry">
            <mxPoint x="235.5" y="2160" as="sourcePoint" />
            <mxPoint x="235.5" y="2150" as="targetPoint" />
            <Array as="points">
              <mxPoint x="235.5" y="2160" />
            </Array>
          </mxGeometry>
        </mxCell>
        <mxCell id="w3ct9miu4DhZpaCJDkBc-102" value="" style="rounded=0;whiteSpace=wrap;html=1;fillColor=#dae8fc;strokeColor=#6c8ebf;" vertex="1" parent="1">
          <mxGeometry x="265" y="2160" width="30" height="30" as="geometry" />
        </mxCell>
        <mxCell id="w3ct9miu4DhZpaCJDkBc-103" value="" style="endArrow=none;html=1;rounded=0;fillColor=#dae8fc;strokeColor=#6c8ebf;" edge="1" parent="1">
          <mxGeometry width="50" height="50" relative="1" as="geometry">
            <mxPoint x="280.5" y="2160" as="sourcePoint" />
            <mxPoint x="280.5" y="2150" as="targetPoint" />
            <Array as="points">
              <mxPoint x="280.5" y="2160" />
            </Array>
          </mxGeometry>
        </mxCell>
        <mxCell id="w3ct9miu4DhZpaCJDkBc-104" value="" style="rounded=0;whiteSpace=wrap;html=1;fillColor=#dae8fc;strokeColor=#6c8ebf;" vertex="1" parent="1">
          <mxGeometry x="310.5" y="2160" width="30" height="30" as="geometry" />
        </mxCell>
        <mxCell id="w3ct9miu4DhZpaCJDkBc-105" value="" style="endArrow=none;html=1;rounded=0;fillColor=#dae8fc;strokeColor=#6c8ebf;" edge="1" parent="1">
          <mxGeometry width="50" height="50" relative="1" as="geometry">
            <mxPoint x="326" y="2160" as="sourcePoint" />
            <mxPoint x="326" y="2150" as="targetPoint" />
            <Array as="points">
              <mxPoint x="326" y="2160" />
            </Array>
          </mxGeometry>
        </mxCell>
        <mxCell id="w3ct9miu4DhZpaCJDkBc-106" value="" style="rounded=0;whiteSpace=wrap;html=1;fillColor=#dae8fc;strokeColor=#6c8ebf;" vertex="1" parent="1">
          <mxGeometry x="355.5" y="2160" width="30" height="30" as="geometry" />
        </mxCell>
        <mxCell id="w3ct9miu4DhZpaCJDkBc-107" value="" style="endArrow=none;html=1;rounded=0;fillColor=#dae8fc;strokeColor=#6c8ebf;" edge="1" parent="1">
          <mxGeometry width="50" height="50" relative="1" as="geometry">
            <mxPoint x="371" y="2160" as="sourcePoint" />
            <mxPoint x="371" y="2150" as="targetPoint" />
            <Array as="points">
              <mxPoint x="371" y="2160" />
            </Array>
          </mxGeometry>
        </mxCell>
        <mxCell id="w3ct9miu4DhZpaCJDkBc-108" value="" style="rounded=0;whiteSpace=wrap;html=1;fillColor=#dae8fc;strokeColor=#6c8ebf;" vertex="1" parent="1">
          <mxGeometry x="400" y="2160" width="30" height="30" as="geometry" />
        </mxCell>
        <mxCell id="w3ct9miu4DhZpaCJDkBc-109" value="" style="endArrow=none;html=1;rounded=0;fillColor=#dae8fc;strokeColor=#6c8ebf;" edge="1" parent="1">
          <mxGeometry width="50" height="50" relative="1" as="geometry">
            <mxPoint x="415.5" y="2160" as="sourcePoint" />
            <mxPoint x="415.5" y="2150" as="targetPoint" />
            <Array as="points">
              <mxPoint x="415.5" y="2160" />
            </Array>
          </mxGeometry>
        </mxCell>
        <mxCell id="w3ct9miu4DhZpaCJDkBc-110" value="" style="rounded=0;whiteSpace=wrap;html=1;fillColor=#dae8fc;strokeColor=#6c8ebf;" vertex="1" parent="1">
          <mxGeometry x="445" y="2160" width="30" height="30" as="geometry" />
        </mxCell>
        <mxCell id="w3ct9miu4DhZpaCJDkBc-111" value="" style="endArrow=none;html=1;rounded=0;fillColor=#dae8fc;strokeColor=#6c8ebf;" edge="1" parent="1">
          <mxGeometry width="50" height="50" relative="1" as="geometry">
            <mxPoint x="460.5" y="2160" as="sourcePoint" />
            <mxPoint x="460.5" y="2150" as="targetPoint" />
            <Array as="points">
              <mxPoint x="460.5" y="2160" />
            </Array>
          </mxGeometry>
        </mxCell>
        <mxCell id="w3ct9miu4DhZpaCJDkBc-112" value="" style="rounded=0;whiteSpace=wrap;html=1;fillColor=#dae8fc;strokeColor=#6c8ebf;" vertex="1" parent="1">
          <mxGeometry x="490.5" y="2160" width="30" height="30" as="geometry" />
        </mxCell>
        <mxCell id="w3ct9miu4DhZpaCJDkBc-113" value="" style="endArrow=none;html=1;rounded=0;fillColor=#dae8fc;strokeColor=#6c8ebf;" edge="1" parent="1">
          <mxGeometry width="50" height="50" relative="1" as="geometry">
            <mxPoint x="506" y="2160" as="sourcePoint" />
            <mxPoint x="506" y="2150" as="targetPoint" />
            <Array as="points">
              <mxPoint x="506" y="2160" />
            </Array>
          </mxGeometry>
        </mxCell>
        <mxCell id="w3ct9miu4DhZpaCJDkBc-114" value="" style="rounded=0;whiteSpace=wrap;html=1;fillColor=#dae8fc;strokeColor=#6c8ebf;" vertex="1" parent="1">
          <mxGeometry x="535.5" y="2160" width="30" height="30" as="geometry" />
        </mxCell>
        <mxCell id="w3ct9miu4DhZpaCJDkBc-115" value="" style="endArrow=none;html=1;rounded=0;fillColor=#dae8fc;strokeColor=#6c8ebf;" edge="1" parent="1">
          <mxGeometry width="50" height="50" relative="1" as="geometry">
            <mxPoint x="551" y="2160" as="sourcePoint" />
            <mxPoint x="551" y="2150" as="targetPoint" />
            <Array as="points">
              <mxPoint x="551" y="2160" />
            </Array>
          </mxGeometry>
        </mxCell>
        <mxCell id="w3ct9miu4DhZpaCJDkBc-116" value="" style="rounded=0;whiteSpace=wrap;html=1;fillColor=#dae8fc;strokeColor=#6c8ebf;" vertex="1" parent="1">
          <mxGeometry x="580.5" y="2160" width="30" height="30" as="geometry" />
        </mxCell>
        <mxCell id="w3ct9miu4DhZpaCJDkBc-117" value="" style="endArrow=none;html=1;rounded=0;fillColor=#dae8fc;strokeColor=#6c8ebf;" edge="1" parent="1">
          <mxGeometry width="50" height="50" relative="1" as="geometry">
            <mxPoint x="596" y="2160" as="sourcePoint" />
            <mxPoint x="596" y="2150" as="targetPoint" />
            <Array as="points">
              <mxPoint x="596" y="2160" />
            </Array>
          </mxGeometry>
        </mxCell>
        <mxCell id="w3ct9miu4DhZpaCJDkBc-118" value="" style="rounded=0;whiteSpace=wrap;html=1;fillColor=#dae8fc;strokeColor=#6c8ebf;" vertex="1" parent="1">
          <mxGeometry x="625.5" y="2160" width="30" height="30" as="geometry" />
        </mxCell>
        <mxCell id="w3ct9miu4DhZpaCJDkBc-119" value="" style="endArrow=none;html=1;rounded=0;fillColor=#dae8fc;strokeColor=#6c8ebf;" edge="1" parent="1">
          <mxGeometry width="50" height="50" relative="1" as="geometry">
            <mxPoint x="641" y="2160" as="sourcePoint" />
            <mxPoint x="641" y="2150" as="targetPoint" />
            <Array as="points">
              <mxPoint x="641" y="2160" />
            </Array>
          </mxGeometry>
        </mxCell>
        <mxCell id="w3ct9miu4DhZpaCJDkBc-120" value="" style="rounded=0;whiteSpace=wrap;html=1;fillColor=#dae8fc;strokeColor=#6c8ebf;" vertex="1" parent="1">
          <mxGeometry x="671" y="2160" width="30" height="30" as="geometry" />
        </mxCell>
        <mxCell id="w3ct9miu4DhZpaCJDkBc-121" value="" style="endArrow=none;html=1;rounded=0;fillColor=#dae8fc;strokeColor=#6c8ebf;" edge="1" parent="1">
          <mxGeometry width="50" height="50" relative="1" as="geometry">
            <mxPoint x="686.5" y="2160" as="sourcePoint" />
            <mxPoint x="686.5" y="2150" as="targetPoint" />
            <Array as="points">
              <mxPoint x="686.5" y="2160" />
            </Array>
          </mxGeometry>
        </mxCell>
        <mxCell id="w3ct9miu4DhZpaCJDkBc-122" value="" style="rounded=0;whiteSpace=wrap;html=1;fillColor=#dae8fc;strokeColor=#6c8ebf;" vertex="1" parent="1">
          <mxGeometry x="716" y="2160" width="30" height="30" as="geometry" />
        </mxCell>
        <mxCell id="w3ct9miu4DhZpaCJDkBc-123" value="" style="endArrow=none;html=1;rounded=0;fillColor=#dae8fc;strokeColor=#6c8ebf;" edge="1" parent="1">
          <mxGeometry width="50" height="50" relative="1" as="geometry">
            <mxPoint x="731.5" y="2160" as="sourcePoint" />
            <mxPoint x="731.5" y="2150" as="targetPoint" />
            <Array as="points">
              <mxPoint x="731.5" y="2160" />
            </Array>
          </mxGeometry>
        </mxCell>
        <mxCell id="w3ct9miu4DhZpaCJDkBc-124" value="&lt;font size=&quot;1&quot; face=&quot;Times New Roman&quot;&gt;&lt;b style=&quot;font-size: 21px&quot;&gt;BERT/word2vec&lt;/b&gt;&lt;/font&gt;" style="rounded=0;whiteSpace=wrap;html=1;fillColor=#d5e8d4;strokeColor=#82b366;" vertex="1" parent="1">
          <mxGeometry x="37.5" y="2100" width="710.5" height="50" as="geometry" />
        </mxCell>
        <mxCell id="w3ct9miu4DhZpaCJDkBc-125" value="" style="rounded=0;whiteSpace=wrap;html=1;fillColor=#e1d5e7;strokeColor=#9673a6;" vertex="1" parent="1">
          <mxGeometry x="39.5" y="2060" width="30" height="30" as="geometry" />
        </mxCell>
        <mxCell id="w3ct9miu4DhZpaCJDkBc-126" value="" style="endArrow=none;html=1;rounded=0;fillColor=#e1d5e7;strokeColor=#9673a6;" edge="1" parent="1">
          <mxGeometry width="50" height="50" relative="1" as="geometry">
            <mxPoint x="55" y="2100" as="sourcePoint" />
            <mxPoint x="55" y="2090" as="targetPoint" />
            <Array as="points">
              <mxPoint x="55" y="2100" />
            </Array>
          </mxGeometry>
        </mxCell>
        <mxCell id="w3ct9miu4DhZpaCJDkBc-128" value="" style="endArrow=none;html=1;rounded=0;fillColor=#e1d5e7;strokeColor=#9673a6;" edge="1" parent="1">
          <mxGeometry width="50" height="50" relative="1" as="geometry">
            <mxPoint x="100" y="2100" as="sourcePoint" />
            <mxPoint x="100" y="2090" as="targetPoint" />
            <Array as="points">
              <mxPoint x="100" y="2100" />
            </Array>
          </mxGeometry>
        </mxCell>
        <mxCell id="w3ct9miu4DhZpaCJDkBc-130" value="" style="endArrow=none;html=1;rounded=0;fillColor=#e1d5e7;strokeColor=#9673a6;" edge="1" parent="1">
          <mxGeometry width="50" height="50" relative="1" as="geometry">
            <mxPoint x="145.5" y="2100" as="sourcePoint" />
            <mxPoint x="145.5" y="2090" as="targetPoint" />
            <Array as="points">
              <mxPoint x="145.5" y="2100" />
            </Array>
          </mxGeometry>
        </mxCell>
        <mxCell id="w3ct9miu4DhZpaCJDkBc-132" value="" style="endArrow=none;html=1;rounded=0;fillColor=#e1d5e7;strokeColor=#9673a6;" edge="1" parent="1">
          <mxGeometry width="50" height="50" relative="1" as="geometry">
            <mxPoint x="190.5" y="2100" as="sourcePoint" />
            <mxPoint x="190.5" y="2090" as="targetPoint" />
            <Array as="points">
              <mxPoint x="190.5" y="2100" />
            </Array>
          </mxGeometry>
        </mxCell>
        <mxCell id="w3ct9miu4DhZpaCJDkBc-134" value="" style="endArrow=none;html=1;rounded=0;fillColor=#e1d5e7;strokeColor=#9673a6;" edge="1" parent="1">
          <mxGeometry width="50" height="50" relative="1" as="geometry">
            <mxPoint x="235.5" y="2100" as="sourcePoint" />
            <mxPoint x="235.5" y="2090" as="targetPoint" />
            <Array as="points">
              <mxPoint x="235.5" y="2100" />
            </Array>
          </mxGeometry>
        </mxCell>
        <mxCell id="w3ct9miu4DhZpaCJDkBc-136" value="" style="endArrow=none;html=1;rounded=0;fillColor=#e1d5e7;strokeColor=#9673a6;" edge="1" parent="1">
          <mxGeometry width="50" height="50" relative="1" as="geometry">
            <mxPoint x="280.5" y="2100" as="sourcePoint" />
            <mxPoint x="280.5" y="2090" as="targetPoint" />
            <Array as="points">
              <mxPoint x="280.5" y="2100" />
            </Array>
          </mxGeometry>
        </mxCell>
        <mxCell id="w3ct9miu4DhZpaCJDkBc-138" value="" style="endArrow=none;html=1;rounded=0;fillColor=#e1d5e7;strokeColor=#9673a6;" edge="1" parent="1">
          <mxGeometry width="50" height="50" relative="1" as="geometry">
            <mxPoint x="326" y="2100" as="sourcePoint" />
            <mxPoint x="326" y="2090" as="targetPoint" />
            <Array as="points">
              <mxPoint x="326" y="2100" />
            </Array>
          </mxGeometry>
        </mxCell>
        <mxCell id="w3ct9miu4DhZpaCJDkBc-140" value="" style="endArrow=none;html=1;rounded=0;fillColor=#e1d5e7;strokeColor=#9673a6;" edge="1" parent="1">
          <mxGeometry width="50" height="50" relative="1" as="geometry">
            <mxPoint x="371" y="2100" as="sourcePoint" />
            <mxPoint x="371" y="2090" as="targetPoint" />
            <Array as="points">
              <mxPoint x="371" y="2100" />
            </Array>
          </mxGeometry>
        </mxCell>
        <mxCell id="w3ct9miu4DhZpaCJDkBc-142" value="" style="endArrow=none;html=1;rounded=0;fillColor=#e1d5e7;strokeColor=#9673a6;" edge="1" parent="1">
          <mxGeometry width="50" height="50" relative="1" as="geometry">
            <mxPoint x="415.5" y="2100" as="sourcePoint" />
            <mxPoint x="415.5" y="2090" as="targetPoint" />
            <Array as="points">
              <mxPoint x="415.5" y="2100" />
            </Array>
          </mxGeometry>
        </mxCell>
        <mxCell id="w3ct9miu4DhZpaCJDkBc-144" value="" style="endArrow=none;html=1;rounded=0;fillColor=#e1d5e7;strokeColor=#9673a6;" edge="1" parent="1">
          <mxGeometry width="50" height="50" relative="1" as="geometry">
            <mxPoint x="460.5" y="2100" as="sourcePoint" />
            <mxPoint x="460.5" y="2090" as="targetPoint" />
            <Array as="points">
              <mxPoint x="460.5" y="2100" />
            </Array>
          </mxGeometry>
        </mxCell>
        <mxCell id="w3ct9miu4DhZpaCJDkBc-146" value="" style="endArrow=none;html=1;rounded=0;fillColor=#e1d5e7;strokeColor=#9673a6;" edge="1" parent="1">
          <mxGeometry width="50" height="50" relative="1" as="geometry">
            <mxPoint x="506" y="2100" as="sourcePoint" />
            <mxPoint x="506" y="2090" as="targetPoint" />
            <Array as="points">
              <mxPoint x="506" y="2100" />
            </Array>
          </mxGeometry>
        </mxCell>
        <mxCell id="w3ct9miu4DhZpaCJDkBc-148" value="" style="endArrow=none;html=1;rounded=0;fillColor=#e1d5e7;strokeColor=#9673a6;" edge="1" parent="1">
          <mxGeometry width="50" height="50" relative="1" as="geometry">
            <mxPoint x="551" y="2100" as="sourcePoint" />
            <mxPoint x="551" y="2090" as="targetPoint" />
            <Array as="points">
              <mxPoint x="551" y="2100" />
            </Array>
          </mxGeometry>
        </mxCell>
        <mxCell id="w3ct9miu4DhZpaCJDkBc-150" value="" style="endArrow=none;html=1;rounded=0;fillColor=#e1d5e7;strokeColor=#9673a6;" edge="1" parent="1">
          <mxGeometry width="50" height="50" relative="1" as="geometry">
            <mxPoint x="596" y="2100" as="sourcePoint" />
            <mxPoint x="596" y="2090" as="targetPoint" />
            <Array as="points">
              <mxPoint x="596" y="2100" />
            </Array>
          </mxGeometry>
        </mxCell>
        <mxCell id="w3ct9miu4DhZpaCJDkBc-152" value="" style="endArrow=none;html=1;rounded=0;fillColor=#e1d5e7;strokeColor=#9673a6;" edge="1" parent="1">
          <mxGeometry width="50" height="50" relative="1" as="geometry">
            <mxPoint x="641" y="2100" as="sourcePoint" />
            <mxPoint x="641" y="2090" as="targetPoint" />
            <Array as="points">
              <mxPoint x="641" y="2100" />
            </Array>
          </mxGeometry>
        </mxCell>
        <mxCell id="w3ct9miu4DhZpaCJDkBc-154" value="" style="endArrow=none;html=1;rounded=0;fillColor=#e1d5e7;strokeColor=#9673a6;" edge="1" parent="1">
          <mxGeometry width="50" height="50" relative="1" as="geometry">
            <mxPoint x="686.5" y="2100" as="sourcePoint" />
            <mxPoint x="686.5" y="2090" as="targetPoint" />
            <Array as="points">
              <mxPoint x="686.5" y="2100" />
            </Array>
          </mxGeometry>
        </mxCell>
        <mxCell id="w3ct9miu4DhZpaCJDkBc-156" value="" style="endArrow=none;html=1;rounded=0;fillColor=#e1d5e7;strokeColor=#9673a6;" edge="1" parent="1">
          <mxGeometry width="50" height="50" relative="1" as="geometry">
            <mxPoint x="731.5" y="2100" as="sourcePoint" />
            <mxPoint x="731.5" y="2090" as="targetPoint" />
            <Array as="points">
              <mxPoint x="731.5" y="2100" />
            </Array>
          </mxGeometry>
        </mxCell>
        <mxCell id="w3ct9miu4DhZpaCJDkBc-157" value="" style="endArrow=classic;html=1;exitX=0.5;exitY=0;exitDx=0;exitDy=0;fillColor=#e1d5e7;strokeColor=#9673a6;" edge="1" parent="1" source="w3ct9miu4DhZpaCJDkBc-125">
          <mxGeometry width="50" height="50" relative="1" as="geometry">
            <mxPoint x="330" y="2160" as="sourcePoint" />
            <mxPoint x="55" y="2036" as="targetPoint" />
          </mxGeometry>
        </mxCell>
        <mxCell id="w3ct9miu4DhZpaCJDkBc-159" value="" style="rounded=0;whiteSpace=wrap;html=1;fillColor=#e1d5e7;strokeColor=#9673a6;" vertex="1" parent="1">
          <mxGeometry x="84.5" y="2060" width="30" height="30" as="geometry" />
        </mxCell>
        <mxCell id="w3ct9miu4DhZpaCJDkBc-160" value="" style="endArrow=classic;html=1;exitX=0.5;exitY=0;exitDx=0;exitDy=0;fillColor=#e1d5e7;strokeColor=#9673a6;" edge="1" parent="1" source="w3ct9miu4DhZpaCJDkBc-159">
          <mxGeometry width="50" height="50" relative="1" as="geometry">
            <mxPoint x="375" y="2160" as="sourcePoint" />
            <mxPoint x="100" y="2036" as="targetPoint" />
          </mxGeometry>
        </mxCell>
        <mxCell id="w3ct9miu4DhZpaCJDkBc-161" value="" style="rounded=0;whiteSpace=wrap;html=1;fillColor=#e1d5e7;strokeColor=#9673a6;" vertex="1" parent="1">
          <mxGeometry x="130" y="2060" width="30" height="30" as="geometry" />
        </mxCell>
        <mxCell id="w3ct9miu4DhZpaCJDkBc-162" value="" style="endArrow=classic;html=1;exitX=0.5;exitY=0;exitDx=0;exitDy=0;fillColor=#e1d5e7;strokeColor=#9673a6;" edge="1" parent="1" source="w3ct9miu4DhZpaCJDkBc-161">
          <mxGeometry width="50" height="50" relative="1" as="geometry">
            <mxPoint x="420.5" y="2160" as="sourcePoint" />
            <mxPoint x="145.5" y="2036" as="targetPoint" />
          </mxGeometry>
        </mxCell>
        <mxCell id="w3ct9miu4DhZpaCJDkBc-163" value="" style="rounded=0;whiteSpace=wrap;html=1;fillColor=#e1d5e7;strokeColor=#9673a6;" vertex="1" parent="1">
          <mxGeometry x="175" y="2060" width="30" height="30" as="geometry" />
        </mxCell>
        <mxCell id="w3ct9miu4DhZpaCJDkBc-164" value="" style="endArrow=classic;html=1;exitX=0.5;exitY=0;exitDx=0;exitDy=0;fillColor=#e1d5e7;strokeColor=#9673a6;" edge="1" parent="1" source="w3ct9miu4DhZpaCJDkBc-163">
          <mxGeometry width="50" height="50" relative="1" as="geometry">
            <mxPoint x="465.5" y="2160" as="sourcePoint" />
            <mxPoint x="190.5" y="2036" as="targetPoint" />
          </mxGeometry>
        </mxCell>
        <mxCell id="w3ct9miu4DhZpaCJDkBc-165" value="" style="rounded=0;whiteSpace=wrap;html=1;fillColor=#e1d5e7;strokeColor=#9673a6;" vertex="1" parent="1">
          <mxGeometry x="220" y="2060" width="30" height="30" as="geometry" />
        </mxCell>
        <mxCell id="w3ct9miu4DhZpaCJDkBc-166" value="" style="endArrow=classic;html=1;exitX=0.5;exitY=0;exitDx=0;exitDy=0;fillColor=#e1d5e7;strokeColor=#9673a6;" edge="1" parent="1" source="w3ct9miu4DhZpaCJDkBc-165">
          <mxGeometry width="50" height="50" relative="1" as="geometry">
            <mxPoint x="510.5" y="2160" as="sourcePoint" />
            <mxPoint x="235.5" y="2036" as="targetPoint" />
          </mxGeometry>
        </mxCell>
        <mxCell id="w3ct9miu4DhZpaCJDkBc-167" value="" style="rounded=0;whiteSpace=wrap;html=1;fillColor=#e1d5e7;strokeColor=#9673a6;" vertex="1" parent="1">
          <mxGeometry x="265" y="2060" width="30" height="30" as="geometry" />
        </mxCell>
        <mxCell id="w3ct9miu4DhZpaCJDkBc-168" value="" style="endArrow=classic;html=1;exitX=0.5;exitY=0;exitDx=0;exitDy=0;fillColor=#e1d5e7;strokeColor=#9673a6;" edge="1" parent="1" source="w3ct9miu4DhZpaCJDkBc-167">
          <mxGeometry width="50" height="50" relative="1" as="geometry">
            <mxPoint x="555.5" y="2160" as="sourcePoint" />
            <mxPoint x="280.5" y="2036" as="targetPoint" />
          </mxGeometry>
        </mxCell>
        <mxCell id="w3ct9miu4DhZpaCJDkBc-169" value="" style="rounded=0;whiteSpace=wrap;html=1;fillColor=#e1d5e7;strokeColor=#9673a6;" vertex="1" parent="1">
          <mxGeometry x="310" y="2060" width="30" height="30" as="geometry" />
        </mxCell>
        <mxCell id="w3ct9miu4DhZpaCJDkBc-170" value="" style="endArrow=classic;html=1;exitX=0.5;exitY=0;exitDx=0;exitDy=0;fillColor=#e1d5e7;strokeColor=#9673a6;" edge="1" parent="1" source="w3ct9miu4DhZpaCJDkBc-169">
          <mxGeometry width="50" height="50" relative="1" as="geometry">
            <mxPoint x="600.5" y="2160" as="sourcePoint" />
            <mxPoint x="325.5" y="2036" as="targetPoint" />
          </mxGeometry>
        </mxCell>
        <mxCell id="w3ct9miu4DhZpaCJDkBc-171" value="" style="rounded=0;whiteSpace=wrap;html=1;fillColor=#e1d5e7;strokeColor=#9673a6;" vertex="1" parent="1">
          <mxGeometry x="355" y="2060" width="30" height="30" as="geometry" />
        </mxCell>
        <mxCell id="w3ct9miu4DhZpaCJDkBc-172" value="" style="endArrow=classic;html=1;exitX=0.5;exitY=0;exitDx=0;exitDy=0;fillColor=#e1d5e7;strokeColor=#9673a6;" edge="1" parent="1" source="w3ct9miu4DhZpaCJDkBc-171">
          <mxGeometry width="50" height="50" relative="1" as="geometry">
            <mxPoint x="645.5" y="2160" as="sourcePoint" />
            <mxPoint x="370.5" y="2036" as="targetPoint" />
          </mxGeometry>
        </mxCell>
        <mxCell id="w3ct9miu4DhZpaCJDkBc-173" value="" style="rounded=0;whiteSpace=wrap;html=1;fillColor=#e1d5e7;strokeColor=#9673a6;" vertex="1" parent="1">
          <mxGeometry x="400.5" y="2060" width="30" height="30" as="geometry" />
        </mxCell>
        <mxCell id="w3ct9miu4DhZpaCJDkBc-174" value="" style="endArrow=classic;html=1;exitX=0.5;exitY=0;exitDx=0;exitDy=0;fillColor=#e1d5e7;strokeColor=#9673a6;" edge="1" parent="1" source="w3ct9miu4DhZpaCJDkBc-173">
          <mxGeometry width="50" height="50" relative="1" as="geometry">
            <mxPoint x="691" y="2160" as="sourcePoint" />
            <mxPoint x="416" y="2036" as="targetPoint" />
          </mxGeometry>
        </mxCell>
        <mxCell id="w3ct9miu4DhZpaCJDkBc-175" value="" style="rounded=0;whiteSpace=wrap;html=1;fillColor=#e1d5e7;strokeColor=#9673a6;" vertex="1" parent="1">
          <mxGeometry x="445.5" y="2060" width="30" height="30" as="geometry" />
        </mxCell>
        <mxCell id="w3ct9miu4DhZpaCJDkBc-176" value="" style="endArrow=classic;html=1;exitX=0.5;exitY=0;exitDx=0;exitDy=0;fillColor=#e1d5e7;strokeColor=#9673a6;" edge="1" parent="1" source="w3ct9miu4DhZpaCJDkBc-175">
          <mxGeometry width="50" height="50" relative="1" as="geometry">
            <mxPoint x="736" y="2160" as="sourcePoint" />
            <mxPoint x="461" y="2036" as="targetPoint" />
          </mxGeometry>
        </mxCell>
        <mxCell id="w3ct9miu4DhZpaCJDkBc-177" value="" style="rounded=0;whiteSpace=wrap;html=1;fillColor=#e1d5e7;strokeColor=#9673a6;" vertex="1" parent="1">
          <mxGeometry x="490.5" y="2060" width="30" height="30" as="geometry" />
        </mxCell>
        <mxCell id="w3ct9miu4DhZpaCJDkBc-178" value="" style="endArrow=classic;html=1;exitX=0.5;exitY=0;exitDx=0;exitDy=0;fillColor=#e1d5e7;strokeColor=#9673a6;" edge="1" parent="1" source="w3ct9miu4DhZpaCJDkBc-177">
          <mxGeometry width="50" height="50" relative="1" as="geometry">
            <mxPoint x="781" y="2160" as="sourcePoint" />
            <mxPoint x="506" y="2036" as="targetPoint" />
          </mxGeometry>
        </mxCell>
        <mxCell id="w3ct9miu4DhZpaCJDkBc-179" value="" style="rounded=0;whiteSpace=wrap;html=1;fillColor=#e1d5e7;strokeColor=#9673a6;" vertex="1" parent="1">
          <mxGeometry x="535.5" y="2060" width="30" height="30" as="geometry" />
        </mxCell>
        <mxCell id="w3ct9miu4DhZpaCJDkBc-180" value="" style="endArrow=classic;html=1;exitX=0.5;exitY=0;exitDx=0;exitDy=0;fillColor=#e1d5e7;strokeColor=#9673a6;" edge="1" parent="1" source="w3ct9miu4DhZpaCJDkBc-179">
          <mxGeometry width="50" height="50" relative="1" as="geometry">
            <mxPoint x="826" y="2160" as="sourcePoint" />
            <mxPoint x="551" y="2036" as="targetPoint" />
          </mxGeometry>
        </mxCell>
        <mxCell id="w3ct9miu4DhZpaCJDkBc-181" value="" style="rounded=0;whiteSpace=wrap;html=1;fillColor=#e1d5e7;strokeColor=#9673a6;" vertex="1" parent="1">
          <mxGeometry x="581" y="2060" width="30" height="30" as="geometry" />
        </mxCell>
        <mxCell id="w3ct9miu4DhZpaCJDkBc-182" value="" style="endArrow=classic;html=1;exitX=0.5;exitY=0;exitDx=0;exitDy=0;fillColor=#e1d5e7;strokeColor=#9673a6;" edge="1" parent="1" source="w3ct9miu4DhZpaCJDkBc-181">
          <mxGeometry width="50" height="50" relative="1" as="geometry">
            <mxPoint x="871.5" y="2160" as="sourcePoint" />
            <mxPoint x="596.5" y="2036" as="targetPoint" />
          </mxGeometry>
        </mxCell>
        <mxCell id="w3ct9miu4DhZpaCJDkBc-183" value="" style="rounded=0;whiteSpace=wrap;html=1;fillColor=#e1d5e7;strokeColor=#9673a6;" vertex="1" parent="1">
          <mxGeometry x="626" y="2060" width="30" height="30" as="geometry" />
        </mxCell>
        <mxCell id="w3ct9miu4DhZpaCJDkBc-184" value="" style="endArrow=classic;html=1;exitX=0.5;exitY=0;exitDx=0;exitDy=0;fillColor=#e1d5e7;strokeColor=#9673a6;" edge="1" parent="1" source="w3ct9miu4DhZpaCJDkBc-183">
          <mxGeometry width="50" height="50" relative="1" as="geometry">
            <mxPoint x="916.5" y="2160" as="sourcePoint" />
            <mxPoint x="641.5" y="2036" as="targetPoint" />
          </mxGeometry>
        </mxCell>
        <mxCell id="w3ct9miu4DhZpaCJDkBc-185" value="" style="rounded=0;whiteSpace=wrap;html=1;fillColor=#e1d5e7;strokeColor=#9673a6;" vertex="1" parent="1">
          <mxGeometry x="671" y="2060" width="30" height="30" as="geometry" />
        </mxCell>
        <mxCell id="w3ct9miu4DhZpaCJDkBc-186" value="" style="endArrow=classic;html=1;exitX=0.5;exitY=0;exitDx=0;exitDy=0;fillColor=#e1d5e7;strokeColor=#9673a6;" edge="1" parent="1" source="w3ct9miu4DhZpaCJDkBc-185">
          <mxGeometry width="50" height="50" relative="1" as="geometry">
            <mxPoint x="961.5" y="2160" as="sourcePoint" />
            <mxPoint x="686.5" y="2036" as="targetPoint" />
          </mxGeometry>
        </mxCell>
        <mxCell id="w3ct9miu4DhZpaCJDkBc-187" value="" style="rounded=0;whiteSpace=wrap;html=1;fillColor=#e1d5e7;strokeColor=#9673a6;" vertex="1" parent="1">
          <mxGeometry x="716" y="2060" width="30" height="30" as="geometry" />
        </mxCell>
        <mxCell id="w3ct9miu4DhZpaCJDkBc-188" value="" style="endArrow=classic;html=1;exitX=0.5;exitY=0;exitDx=0;exitDy=0;fillColor=#e1d5e7;strokeColor=#9673a6;" edge="1" parent="1" source="w3ct9miu4DhZpaCJDkBc-187">
          <mxGeometry width="50" height="50" relative="1" as="geometry">
            <mxPoint x="1006.5" y="2160" as="sourcePoint" />
            <mxPoint x="731.5" y="2036" as="targetPoint" />
          </mxGeometry>
        </mxCell>
        <mxCell id="w3ct9miu4DhZpaCJDkBc-191" value="" style="edgeStyle=orthogonalEdgeStyle;rounded=0;orthogonalLoop=1;jettySize=auto;html=1;" edge="1" parent="1" source="w3ct9miu4DhZpaCJDkBc-189" target="w3ct9miu4DhZpaCJDkBc-190">
          <mxGeometry relative="1" as="geometry" />
        </mxCell>
        <mxCell id="w3ct9miu4DhZpaCJDkBc-189" value="&lt;h4&gt;&lt;font size=&quot;1&quot; face=&quot;Times New Roman&quot;&gt;&lt;b style=&quot;font-size: 21px&quot;&gt;DGCNN&lt;/b&gt;&lt;/font&gt;&lt;/h4&gt;" style="rounded=0;whiteSpace=wrap;html=1;fillColor=#fff2cc;strokeColor=#d6b656;" vertex="1" parent="1">
          <mxGeometry x="38" y="1985" width="710.5" height="50" as="geometry" />
        </mxCell>
        <mxCell id="w3ct9miu4DhZpaCJDkBc-192" style="edgeStyle=orthogonalEdgeStyle;rounded=0;orthogonalLoop=1;jettySize=auto;html=1;" edge="1" parent="1" source="w3ct9miu4DhZpaCJDkBc-190">
          <mxGeometry relative="1" as="geometry">
            <mxPoint x="393" y="1880" as="targetPoint" />
          </mxGeometry>
        </mxCell>
        <mxCell id="w3ct9miu4DhZpaCJDkBc-190" value="&lt;p&gt;&lt;font style=&quot;font-size: 21px&quot; face=&quot;Times New Roman&quot;&gt;&lt;b&gt;Average Pooling&lt;/b&gt;&lt;/font&gt;&lt;/p&gt;" style="whiteSpace=wrap;html=1;rounded=0;strokeColor=#666666;fillColor=#f5f5f5;fontColor=#333333;" vertex="1" parent="1">
          <mxGeometry x="38" y="1910" width="710" height="50" as="geometry" />
        </mxCell>
        <mxCell id="w3ct9miu4DhZpaCJDkBc-196" value="" style="edgeStyle=orthogonalEdgeStyle;rounded=0;orthogonalLoop=1;jettySize=auto;html=1;" edge="1" parent="1" source="w3ct9miu4DhZpaCJDkBc-193">
          <mxGeometry relative="1" as="geometry">
            <mxPoint x="393" y="1800" as="targetPoint" />
          </mxGeometry>
        </mxCell>
        <mxCell id="w3ct9miu4DhZpaCJDkBc-193" value="&lt;p&gt;&lt;font style=&quot;font-size: 21px&quot; face=&quot;Times New Roman&quot;&gt;&lt;b&gt;Dense&lt;/b&gt;&lt;/font&gt;&lt;/p&gt;" style="whiteSpace=wrap;html=1;rounded=0;strokeColor=#b85450;fillColor=#f8cecc;" vertex="1" parent="1">
          <mxGeometry x="38" y="1830" width="710" height="50" as="geometry" />
        </mxCell>
        <mxCell id="w3ct9miu4DhZpaCJDkBc-197" value="&lt;font style=&quot;font-size: 22px&quot;&gt;Predicate list&lt;/font&gt;" style="text;html=1;strokeColor=none;fillColor=none;align=center;verticalAlign=middle;whiteSpace=wrap;rounded=0;" vertex="1" parent="1">
          <mxGeometry x="282.06" y="1740" width="221.38" height="64" as="geometry" />
        </mxCell>
      </root>
    </mxGraphModel>
  </diagram>
</mxfile>
